<?xml version="1.0" standalone="no"?>
<!DOCTYPE svg PUBLIC "-//W3C//DTD SVG 20010904//EN"
 "http://www.w3.org/TR/2001/REC-SVG-20010904/DTD/svg10.dtd">
<svg version="1.0" xmlns="http://www.w3.org/2000/svg"
 width="90.000000pt" height="90.000000pt" viewBox="0 0 90.000000 90.000000"
 preserveAspectRatio="xMidYMid meet">
<metadata>
Created by potrace 1.16, written by Peter Selinger 2001-2019
</metadata>
<defs>
<symbol transform="translate(0.000000,90.000000) scale(0.100000,-0.100000)"
fill="#000000" stroke="none">
<path d="M1 718 c0 -163 2 -179 13 -143 45 142 169 266 311 311 36 11 20 13
-142 13 l-183 1 1 -182z"/>
<path d="M575 886 c59 -19 120 -52 160 -87 28 -25 33 -34 24 -45 -16 -20 -29
-17 -58 10 -68 65 -198 100 -311 84 -166 -22 -316 -172 -338 -338 -37 -269
189 -495 458 -458 67 9 150 46 193 86 25 24 28 25 44 9 16 -15 15 -18 -3 -38
-26 -29 -98 -70 -159 -91 l-50 -17 183 -1 182 0 0 450 0 450 -182 -1 c-163 0
-179 -2 -143 -13z m-262 -237 c14 -6 30 -22 36 -36 18 -39 14 -107 -9 -135
-19 -25 -19 -26 0 -43 16 -14 20 -31 20 -82 0 -59 -3 -67 -30 -95 -27 -26 -36
-30 -67 -25 -51 9 -74 36 -81 92 -4 38 -2 47 9 43 8 -3 17 -24 20 -47 6 -48
20 -61 65 -61 41 0 56 19 62 80 6 67 -15 100 -63 100 -24 0 -35 5 -35 15 0 10
10 15 30 15 48 0 73 33 67 87 -6 54 -25 76 -67 76 -39 0 -51 -12 -59 -59 -3
-21 -12 -39 -20 -42 -11 -4 -13 4 -8 39 10 72 67 107 130 78z m238 -18 c19
-20 29 -40 29 -60 0 -43 -15 -39 -26 6 -11 46 -48 68 -88 53 -33 -12 -46 -46
-46 -117 0 -54 1 -55 18 -40 28 26 88 22 117 -8 22 -21 25 -33 25 -99 0 -65
-3 -79 -24 -103 -34 -39 -98 -39 -132 0 -23 27 -24 34 -24 183 l0 156 29 29
c20 20 39 29 61 29 22 0 41 -9 61 -29z m220 0 l29 -29 0 -156 c0 -149 -1 -156
-24 -183 -34 -39 -98 -39 -132 0 -23 27 -24 34 -24 183 l0 156 29 29 c20 20
39 29 61 29 22 0 41 -9 61 -29z"/>
<path d="M449 451 c-21 -17 -24 -28 -24 -91 0 -83 15 -103 75 -98 46 4 62 35
57 112 -3 47 -8 63 -26 77 -29 24 -53 24 -82 0z"/>
<path d="M682 630 c-34 -14 -42 -50 -42 -188 0 -158 8 -177 70 -177 65 0 71
17 68 192 -2 111 -6 145 -18 157 -21 20 -51 26 -78 16z"/>
<path d="M1 183 l-1 -183 188 1 c132 1 176 4 149 10 -136 32 -277 169 -323
314 -11 36 -13 20 -13 -142z"/>
</symbol>
</defs>
</svg>
